<?xml version="1.0" encoding="utf-8"?>
<!-- Generator: Adobe Illustrator 19.0.0, SVG Export Plug-In . SVG Version: 6.00 Build 0)  -->
<svg version="1.1" id="Warstwa_1" xmlns="http://www.w3.org/2000/svg" xmlns:xlink="http://www.w3.org/1999/xlink" x="0px" y="0px"
	 viewBox="0 148 400 90" style="enable-background:new 0 148 400 90;" xml:space="preserve">
<style type="text/css">
	.st0{fill:#FFFFFF;}
	.st1{fill:url(#XMLID_48_);}
</style>
<path id="XMLID_3_" class="st0" d="M57.1,209.9c-0.4,1.7-0.8,4.2-1.3,7.3s-0.8,5.5-1,7.3c-6.4,1-12,1.4-17,1.4
	c-4.8,0-9.3-0.6-13.4-1.8s-7.9-3.2-11.4-5.9s-5.9-6-7.4-9.7s-2.2-7.9-2.2-12.5c0-5.4,1-10.2,3-14.5s4.9-7.9,8.6-10.7
	c3.8-2.9,7.9-4.9,12.4-6.1c4.5-1.2,9.1-1.8,13.9-1.8c4.4,0,9.8,0.6,16.3,1.7l0.1,3.7c0.1,1.6,0.1,3.4,0.3,5.4l0.3,5.1
	c-3.5-0.8-6.3-1.4-8.4-1.7c-2.2-0.3-4.1-0.4-6-0.4c-4,0-7.6,0.8-10.8,2.4c-3.2,1.6-5.7,3.9-7.6,7c-1.8,3.1-2.8,6.4-2.8,10.2
	c0,3.4,0.8,6.3,2.3,8.7s3.6,4.3,6.3,5.6s5.9,2,9.7,2c2.1,0,4.4-0.2,6.9-0.5C50.2,211.5,53.4,210.9,57.1,209.9z"/>
<path id="XMLID_5_" class="st0" d="M65.5,224.7c0.6-5.2,1-9.9,1.3-14.1c0.3-4.2,0.6-9,0.8-14.6c0.2-5.5,0.4-11.3,0.5-17.5
	c0.1-6.1,0.2-11,0.2-14.6c3.7,0.1,6.7,0.1,9,0.1c2.4,0,5.3-0.1,8.7-0.2c3.4-0.1,6.7-0.2,10-0.2c3.8,0,7.2,0.1,10.2,0.4
	c2.2,0.2,4.3,0.6,6.1,1.3c1.8,0.7,3.4,1.4,4.6,2.4c1.2,0.9,2.3,2,3.1,3.1c0.8,1.2,1.5,2.5,1.9,4.1c0.5,1.6,0.7,3.2,0.7,5
	c0,2-0.3,3.9-0.8,5.6s-1.3,3.4-2.4,4.9s-2.4,2.9-4.1,4s-4,2.2-6.9,3.4l2.3,5.7c0.7,1.6,1.4,3.2,2.1,4.8l6,13
	c0.3,0.6,0.7,1.7,1.4,3.3c-4.9-0.1-8.2-0.1-9.9-0.1c-2.1,0-5.6,0-10.5,0.1c-0.5-1.5-1.3-4.4-2.6-8.6c-0.5-1.8-0.9-3.1-1.3-4.1
	c-0.7-2.1-1.8-5.1-3.2-8.9l-4.6-12.6c1.6,0.3,3.2,0.4,4.7,0.4c2.2,0,4.1-0.3,5.9-1s3.1-1.7,4-3c0.9-1.4,1.4-2.8,1.4-4.3
	c0-1.3-0.3-2.4-1-3.4s-1.8-1.7-3.2-2.2c-1.5-0.5-3.7-0.7-6.8-0.7c-1,0-2.1,0-3.2,0.1c-1.1,0-2.4,0.1-3.9,0.1
	c-0.4,6.1-0.7,13.5-1,22.3s-0.5,17.4-0.6,25.8c-5-0.1-8.2-0.1-9.7-0.1C73.1,224.6,70,224.7,65.5,224.7z"/>
<path id="XMLID_7_" class="st0" d="M142.4,224.7c0.3-2.4,0.7-6.5,1.1-12.2c0.4-5.8,0.6-9.8,0.6-12.2L123.7,164
	c4.5,0.1,8.2,0.1,11.1,0.1c2.8,0,6.1,0,10-0.1c1.2,3,2.8,6.5,4.8,10.6s3.7,7.8,5,11c3.4-6,6.2-10.7,8.2-14.1
	c2.1-3.4,3.6-5.9,4.5-7.5c3.8,0.1,7.4,0.1,10.9,0.1c1.8,0,5.2,0,10-0.1l-19.6,28.8c-3.9,5.8-5.8,8.8-5.8,9v0.4v0.4v0.4l-0.3,6.8
	c-0.2,4.5-0.4,9.4-0.5,14.8c-4.2-0.1-7.4-0.1-9.7-0.1C149.8,224.6,146.6,224.7,142.4,224.7z"/>
<path id="XMLID_9_" class="st0" d="M188.5,224.7l0.9-11.4l1.1-22.3l0.5-15.8c0-1.7,0-3.4,0-5.1c0-1.3,0-3.4,0-6.3
	c3.9,0.1,7.1,0.1,9.4,0.1c2.3,0,5.4-0.1,9.4-0.2c4-0.1,7.3-0.2,10.1-0.2c4,0,6.9,0.3,8.8,0.8s3.6,1.3,5.2,2.4
	c1.5,1.1,2.8,2.4,3.8,3.8c1,1.5,1.8,3.1,2.3,5s0.8,3.7,0.8,5.7c0,4-1,7.6-2.9,10.9s-4.6,5.8-8.2,7.4c-3.5,1.6-7.4,2.4-11.8,2.4
	c-1.6,0-3.5-0.2-5.6-0.5c-0.2-1.4-0.7-3.4-1.3-6.1c-0.7-2.7-1.2-4.7-1.6-6c1.3,0.3,2.7,0.4,4.1,0.4c3,0,5.2-0.7,6.7-2.2
	c1.5-1.4,2.2-3.2,2.2-5.3c0-1-0.2-1.9-0.5-2.7s-0.8-1.4-1.6-1.9c-0.7-0.5-1.5-0.8-2.4-1c-0.9-0.1-1.8-0.2-2.9-0.2
	c-1.1,0-2.2,0-3.3,0.1l-3.7,0.3c-0.4,5.7-0.7,12.1-0.9,19.1c-0.4,12.8-0.6,20.4-0.6,23v5.8l-8.9-0.1
	C196.5,224.6,193.4,224.7,188.5,224.7z"/>
<path id="XMLID_11_" class="st0" d="M260.1,224.7c1.5-14.4,2.4-30.3,2.7-47.7l-19,0.5l0.2-4.9c0.1-2.6,0.2-5.5,0.3-8.7
	c8.4,0.1,18.3,0.1,29.5,0.1h11h10.7h5.8l-0.3,4.4c-0.1,2.3-0.2,4.3-0.2,5.8s-0.1,2.7-0.1,3.5c-6.3-0.3-11.6-0.5-15.7-0.5h-3.1
	c-0.4,5.2-0.8,10.1-1,14.5c-0.3,6.4-0.6,12.6-0.8,18.6s-0.3,10.9-0.3,14.6c-4.9-0.1-8-0.1-9.4-0.1
	C269,224.6,265.6,224.7,260.1,224.7z"/>
<path id="XMLID_13_" class="st0" d="M299.8,207.3c0.4-4.3,0.6-8.4,0.7-12.4c4.2,0.1,8.2,0.2,11.9,0.2c3.8,0,7.8-0.1,12-0.2
	c-0.4,3.8-0.6,8-0.7,12.4c-4.2-0.1-8.2-0.1-12-0.1C308,207.1,304,207.2,299.8,207.3z"/>
<linearGradient id="XMLID_48_" gradientUnits="userSpaceOnUse" x1="328.8" y1="205.65" x2="393.5" y2="205.65" gradientTransform="matrix(1 0 0 -1 0 400)">
	<stop  offset="0" style="stop-color:#262262"/>
	<stop  offset="1" style="stop-color:#662D91"/>
</linearGradient>
<path id="XMLID_15_" class="st1" d="M328.8,224.7c0.6-5.6,1-10.2,1.2-13.8c0.4-6.5,0.9-15.3,1.4-26.6c0.4-7.8,0.5-13.4,0.5-16.6
	v-3.8c5,0.1,8.4,0.1,10.2,0.1c1.2,0,4.4,0,9.6-0.1l-2.1,33.3l-1.1,27.5l-9.7-0.1C337.6,224.6,334.2,224.7,328.8,224.7z M351.1,192.6
	l10-13.6l8.1-11.3l2.5-3.8c5.5,0.1,9.3,0.1,11.2,0.1c0.5,0,4.1,0,10.6-0.1l-18.8,23.7l-3.5,4.8l3.3,5.3l18.6,27.1l-11-0.1
	c-2.4,0-6.4,0-12.1,0.1C366.2,217.5,359.9,206.8,351.1,192.6z"/>
</svg>
