<?xml version="1.0" encoding="utf-8"?>
<!-- Generator: Adobe Illustrator 19.0.0, SVG Export Plug-In . SVG Version: 6.00 Build 0)  -->
<svg version="1.1" id="Warstwa_1" xmlns="http://www.w3.org/2000/svg" xmlns:xlink="http://www.w3.org/1999/xlink" x="0px" y="0px"
	 viewBox="0 0 400 400" style="enable-background:new 0 0 400 400;" xml:space="preserve">
<style type="text/css">
	.st0{fill:url(#XMLID_3_);}
	.st1{fill:#FFFFFF;}
</style>
<linearGradient id="XMLID_3_" gradientUnits="userSpaceOnUse" x1="97.5222" y1="394.5406" x2="214.5222" y2="170.5406">
	<stop  offset="0" style="stop-color:#262262"/>
	<stop  offset="1" style="stop-color:#662D91"/>
</linearGradient>
<circle id="XMLID_1_" class="st0" cx="200" cy="198.3" r="198.3"/>
<path id="XMLID_4_" class="st1" d="M88.6,305.6c2-19.6,3.4-35.8,4.3-48.7c1.6-22.8,3.3-54.1,5.1-93.9c1.3-27.7,1.9-47.2,1.9-58.5V91
	c17.5,0.2,29.5,0.3,36.1,0.3c4.4,0,15.7-0.1,33.9-0.3l-7.4,117.4l-3.8,97.2l-34.1-0.3C119.8,305.3,107.8,305.4,88.6,305.6z
	 M167.4,192.4l35.2-47.9l28.5-39.9l8.8-13.5c19.5,0.2,32.7,0.3,39.6,0.3c1.9,0,14.4-0.1,37.6-0.3l-66.3,83.7l-12.4,16.8l11.6,18.6
	l65.7,95.5l-38.7-0.3c-8.4,0-22.6,0.1-42.6,0.3C220.8,280.2,198.5,242.4,167.4,192.4z"/>
</svg>
